<?xml version="1.0" encoding="UTF-8" standalone="no"?>
<!-- Created with Inkscape (http://www.inkscape.org/) -->

<svg
   width="190.51474mm"
   height="132.11063mm"
   viewBox="0 0 190.51474 132.11063"
   version="1.1"
   id="svg5"
   xml:space="preserve"
   inkscape:version="1.2.2 (b0a8486541, 2022-12-01)"
   sodipodi:docname="Icon_PyRamanGUI.svg"
   xmlns:inkscape="http://www.inkscape.org/namespaces/inkscape"
   xmlns:sodipodi="http://sodipodi.sourceforge.net/DTD/sodipodi-0.dtd"
   xmlns="http://www.w3.org/2000/svg"
   xmlns:svg="http://www.w3.org/2000/svg"><sodipodi:namedview
     id="namedview7"
     pagecolor="#ffffff"
     bordercolor="#000000"
     borderopacity="0.25"
     inkscape:showpageshadow="2"
     inkscape:pageopacity="0.0"
     inkscape:pagecheckerboard="0"
     inkscape:deskcolor="#d1d1d1"
     inkscape:document-units="mm"
     showgrid="false"
     inkscape:zoom="0.84096521"
     inkscape:cx="291.92646"
     inkscape:cy="247.33485"
     inkscape:window-width="1920"
     inkscape:window-height="1127"
     inkscape:window-x="0"
     inkscape:window-y="0"
     inkscape:window-maximized="1"
     inkscape:current-layer="layer1" /><defs
     id="defs2" /><g
     inkscape:label="Ebene 1"
     inkscape:groupmode="layer"
     id="layer1"
     transform="translate(-12.211806,-83.92918)"><g
       id="g306"
       transform="matrix(2.5492588,0,0,2.5492588,-161.9358,-229.20148)"><path
         style="fill:none;stroke:#000000;stroke-width:1;stroke-linecap:round;stroke-dasharray:none;stroke-opacity:1"
         d="m 107.45232,151.71882 c 0.76196,-2.7163 2.32856,-7.6895 2.96403,-10.18219 0.63691,-2.49833 1.32164,-4.9785 2.00177,-7.7555 0.66009,-2.69515 1.35014,-4.64811 2.12285,-7.05732 0.28814,-0.89836 1.42799,-3.44243 2.36852,-3.36843 1.61525,0.12709 2.14969,2.75426 2.70109,4.2778 0.50257,1.38866 1.02287,3.12224 1.45397,4.71593 0.69663,2.57527 1.27123,5.11113 1.99098,7.67343 0.95441,3.39769 1.83088,7.02272 2.86178,10.38902 0.49826,1.627 1.01001,3.0399 1.62709,4.6301 1.55109,3.99714 3.21139,8.10917 5.83857,11.49752 0.81812,1.05515 1.54216,1.93051 2.30561,2.73154 0.9743,1.02225 2.01278,1.92344 3.39286,2.92276 0.80989,0.58644 3.46498,1.96171 3.46498,1.96171"
         id="path371-3-6"
         sodipodi:nodetypes="cssssssssssssc" /><path
         style="fill:none;stroke:#dcac36;stroke-width:1;stroke-linecap:round;stroke-dasharray:none;stroke-opacity:1"
         d="m 95.773254,151.69743 c 0.761955,-2.7163 2.32856,-7.6895 2.964027,-10.18219 0.636907,-2.49833 1.321639,-4.9785 2.001769,-7.7555 0.66009,-2.69515 1.35014,-4.64811 2.12285,-7.05732 0.28814,-0.89836 1.42799,-3.44243 2.36852,-3.36843 1.61525,0.12709 2.14969,2.75426 2.70109,4.2778 0.50257,1.38866 1.02287,3.12224 1.45397,4.71593 0.69663,2.57527 1.27123,5.11113 1.99098,7.67343 0.95441,3.39769 1.83088,7.02272 2.86178,10.38902 0.49826,1.627 1.01001,3.0399 1.62709,4.6301 1.55109,3.99714 3.21139,8.10917 5.83857,11.49752 0.81812,1.05515 1.54216,1.93051 2.30561,2.73154 0.9743,1.02225 2.01278,1.92344 3.39286,2.92276 0.80989,0.58644 3.46498,1.96171 3.46498,1.96171"
         id="path371-3"
         sodipodi:nodetypes="cssssssssssssc" /><path
         style="fill:none;stroke:#4d70af;stroke-width:1;stroke-linecap:round;stroke-dasharray:none;stroke-opacity:1"
         d="m 68.813035,174.05537 c 0,0 4.156349,-2.48335 5.72332,-4.00015 1.137249,-1.10084 1.969287,-2.01811 2.926199,-3.2883 0.954964,-1.26761 2.39938,-3.5051 3.097768,-4.92187 1.259574,-2.55522 2.041103,-4.37153 2.828984,-6.50623 0.612427,-1.65932 1.479172,-4.20765 2.017042,-6.12511 0.761955,-2.7163 1.502331,-5.18529 2.137798,-7.67798 0.636907,-2.49833 1.321635,-4.9785 2.001768,-7.7555 0.660089,-2.69515 1.350135,-4.64811 2.12285,-7.05732 0.288132,-0.89836 1.427983,-3.44243 2.368512,-3.36843 1.615257,0.12709 2.149699,2.75426 2.701094,4.2778 0.502575,1.38866 1.02287,3.12224 1.453975,4.71593 0.696627,2.57527 1.271225,5.11113 1.990975,7.67343 0.95441,3.39769 1.83088,7.02272 2.86178,10.38902 0.49826,1.627 1.01001,3.0399 1.62709,4.6301 1.55109,3.99714 3.21139,8.10917 5.83857,11.49752 0.81812,1.05515 1.54216,1.93051 2.30561,2.73154 0.9743,1.02225 2.01278,1.92344 3.39286,2.92276 0.80989,0.58644 3.46498,1.96171 3.46498,1.96171"
         id="path371"
         sodipodi:nodetypes="csssssssssssssssssc" /></g></g></svg>
